<?xml version="1.0" encoding="UTF-8" standalone="no"?>
<svg
   xmlns:dc="http://purl.org/dc/elements/1.1/"
   xmlns:cc="http://creativecommons.org/ns#"
   xmlns:rdf="http://www.w3.org/1999/02/22-rdf-syntax-ns#"
   xmlns:svg="http://www.w3.org/2000/svg"
   xmlns="http://www.w3.org/2000/svg"
   xmlns:sodipodi="http://sodipodi.sourceforge.net/DTD/sodipodi-0.dtd"
   xmlns:inkscape="http://www.inkscape.org/namespaces/inkscape"
   width="210mm"
   height="210mm"
   viewBox="0 0 210 210"
   version="1.1"
   id="svg8"
   sodipodi:docname="about-icon.svg"
   inkscape:version="1.0.1 (c497b03c, 2020-09-10)">
  <defs
     id="defs2" />
  <sodipodi:namedview
     id="base"
     pagecolor="#ffffff"
     bordercolor="#666666"
     borderopacity="1.0"
     inkscape:pageopacity="0.0"
     inkscape:pageshadow="2"
     inkscape:zoom="0.35"
     inkscape:cx="-150"
     inkscape:cy="560"
     inkscape:document-units="mm"
     inkscape:current-layer="layer1"
     inkscape:document-rotation="0"
     showgrid="false"
     inkscape:window-width="1252"
     inkscape:window-height="943"
     inkscape:window-x="192"
     inkscape:window-y="32"
     inkscape:window-maximized="0" />
  <metadata
     id="metadata5">
    <rdf:RDF>
      <cc:Work
         rdf:about="">
        <dc:format>image/svg+xml</dc:format>
        <dc:type
           rdf:resource="http://purl.org/dc/dcmitype/StillImage" />
        <dc:title />
      </cc:Work>
    </rdf:RDF>
  </metadata>
  <g
     inkscape:label="Layer 1"
     inkscape:groupmode="layer"
     id="layer1">
    <path
       style="fill:#008cff;fill-opacity:1;stroke-width:2.67465"
       d="M 77.136433,205.0006 C 45.746185,196.38238 15.974417,165.79179 7.1018023,133.03974 -5.8851649,85.099934 17.096437,36.410878 63.481151,13.59393 80.384636,5.2789565 84.006577,4.5100379 106.09258,4.5485174 c 20.59655,0.035721 26.42852,1.1083024 39.75286,7.3096606 21.03412,9.78961 34.25149,20.70075 45.3906,37.47054 C 244.2936,129.2065 170.04439,230.50842 77.136433,205.0006 Z m 46.380847,-36.84309 c 3.66607,-1.85339 7.06555,-5.44493 7.5544,-7.98139 0.70768,-3.67172 -1.05978,-4.61157 -8.67236,-4.61157 -5.84217,0 -9.57795,-1.29996 -9.60427,-3.34199 -0.0237,-1.83811 2.59495,-14.36107 5.81919,-27.82866 5.54945,-23.18003 5.62133,-24.854204 1.34709,-31.372311 -2.48335,-3.787122 -7.74005,-7.69435 -11.68155,-8.682793 -8.25498,-2.070291 -30.461418,3.158151 -33.465287,7.879144 -4.14537,6.515136 -2.006243,8.78865 7.252929,7.708603 8.368776,-0.976277 9.364997,-0.420516 9.364997,5.224127 0,3.47412 -2.408142,14.73073 -5.351432,25.0147 -6.754362,23.60008 -6.701046,27.62944 0.466414,35.25277 6.68674,7.11213 25.554829,8.51016 36.969879,2.73937 z m 5.37513,-100.821539 c 2.94328,-2.940996 5.35143,-7.753413 5.35143,-10.694409 0,-7.881796 -9.52734,-16.041579 -18.73,-16.041579 -9.20267,0 -18.73,8.159783 -18.73,16.041579 0,7.881796 9.52733,16.041614 18.73,16.041614 4.45953,0 10.40555,-2.376535 13.37857,-5.347205 z"
       id="path952" />
    <path
       style="fill:#ffffff;stroke-width:2.85714"
       d="M 372.85714,786.65669 C 280.05921,780.73389 204.62238,746.236 135.89971,678.29406 79.02112,622.06166 40.192729,555.04177 23.97607,485.10789 15.665647,449.26943 13.508387,377.63826 19.67278,342.2184 33.710455,261.5596 69.316377,193.44163 128.47225,134.0733 165.36426,97.048786 200.2829,72.745323 252.85714,47.501103 303.4734,23.197039 312.56277,21.194006 380.40766,19.392713 c 90.14908,-2.393474 118.10623,2.442807 177.66403,30.733933 85.24028,40.490817 144.87842,97.255214 185.80708,176.853794 30.09466,58.52844 43.26409,111.59047 43.26409,174.3189 0,101.91777 -36.82126,192.07472 -109.23709,267.46737 -81.70508,85.06375 -186.26286,125.47143 -305.04863,117.88998 z m 83.89943,-145.16772 c 29.67746,-11.38934 48.10994,-36.62246 35.76794,-48.96446 -4.16665,-4.16665 -9.73574,-5.41805 -24.66737,-5.54291 -10.60714,-0.0886 -23.78571,-1.72446 -29.28571,-3.635 -9.4164,-3.271 -9.95003,-4.13697 -9.14374,-14.83871 0.47094,-6.25078 8.62971,-45.43646 18.1306,-87.07932 10.25082,-44.93 17.45357,-83.2898 17.71517,-94.34634 0.39263,-16.59434 -0.58932,-20.23792 -8.97852,-33.31552 -5.55834,-8.66468 -15.95365,-19.1802 -25.36045,-25.65368 l -15.94109,-10.97017 -28.92526,0.232 c -58.03194,0.46551 -105.63767,19.9824 -112.16356,45.9836 -3.16438,12.60791 2.734,15.21297 34.44525,15.21297 18.80728,0 30.28983,1.21108 32.50731,3.42857 7.10623,7.10623 1.75277,39.68129 -19.44817,118.33983 -14.75723,54.75143 -18.56143,79.42291 -14.54594,94.33523 6.44768,23.94494 29.26214,44.02328 58.46271,51.45134 22.641,5.75943 70.68983,3.32237 91.43083,-4.63743 z m 12.15694,-374.05102 c 19.77306,-9.35429 31.0056,-21.99278 36.87283,-41.48802 10.62852,-35.3159 -26.33551,-73.22326 -71.21268,-73.03004 -34.17503,0.14714 -70.16246,31.62264 -70.16246,61.36582 0,13.36792 9.36623,30.754 22.73029,42.19312 24.28502,20.7871 52.89325,24.62118 81.77202,10.95912 z"
       id="path1007"
       transform="scale(0.26458333)" />
  </g>
</svg>
