<?xml version="1.0" encoding="UTF-8" standalone="no"?>
<svg
   xmlns:dc="http://purl.org/dc/elements/1.1/"
   xmlns:cc="http://creativecommons.org/ns#"
   xmlns:rdf="http://www.w3.org/1999/02/22-rdf-syntax-ns#"
   xmlns:svg="http://www.w3.org/2000/svg"
   xmlns="http://www.w3.org/2000/svg"
   xmlns:sodipodi="http://sodipodi.sourceforge.net/DTD/sodipodi-0.dtd"
   xmlns:inkscape="http://www.inkscape.org/namespaces/inkscape"
   width="210mm"
   height="210mm"
   viewBox="0 0 210 210"
   version="1.1"
   id="svg8"
   sodipodi:docname="about-icon.svg"
   inkscape:version="1.0.1 (c497b03c, 2020-09-10)">
  <defs
     id="defs2" />
  <sodipodi:namedview
     id="base"
     pagecolor="#ffffff"
     bordercolor="#666666"
     borderopacity="1.0"
     inkscape:pageopacity="0.0"
     inkscape:pageshadow="2"
     inkscape:zoom="0.35"
     inkscape:cx="-150"
     inkscape:cy="560"
     inkscape:document-units="mm"
     inkscape:current-layer="layer1"
     inkscape:document-rotation="0"
     showgrid="false"
     inkscape:window-width="1252"
     inkscape:window-height="943"
     inkscape:window-x="192"
     inkscape:window-y="54"
     inkscape:window-maximized="0" />
  <metadata
     id="metadata5">
    <rdf:RDF>
      <cc:Work
         rdf:about="">
        <dc:format>image/svg+xml</dc:format>
        <dc:type
           rdf:resource="http://purl.org/dc/dcmitype/StillImage" />
        <dc:title></dc:title>
      </cc:Work>
    </rdf:RDF>
  </metadata>
  <g
     inkscape:label="Layer 1"
     inkscape:groupmode="layer"
     id="layer1">
    <path
       style="fill:#008cff;fill-opacity:1;stroke-width:2.67465"
       d="M 77.136433,205.0006 C 45.746185,196.38238 15.974417,165.79179 7.1018023,133.03974 -5.8851649,85.099934 17.096437,36.410878 63.481151,13.59393 80.384636,5.2789565 84.006577,4.5100379 106.09258,4.5485174 c 20.59655,0.035721 26.42852,1.1083024 39.75286,7.3096606 21.03412,9.78961 34.25149,20.70075 45.3906,37.47054 C 244.2936,129.2065 170.04439,230.50842 77.136433,205.0006 Z m 46.380847,-36.84309 c 3.66607,-1.85339 7.06555,-5.44493 7.5544,-7.98139 0.70768,-3.67172 -1.05978,-4.61157 -8.67236,-4.61157 -5.84217,0 -9.57795,-1.29996 -9.60427,-3.34199 -0.0237,-1.83811 2.59495,-14.36107 5.81919,-27.82866 5.54945,-23.18003 5.62133,-24.854204 1.34709,-31.372311 -2.48335,-3.787122 -7.74005,-7.69435 -11.68155,-8.682793 -8.25498,-2.070291 -30.461418,3.158151 -33.465287,7.879144 -4.14537,6.515136 -2.006243,8.78865 7.252929,7.708603 8.368776,-0.976277 9.364997,-0.420516 9.364997,5.224127 0,3.47412 -2.408142,14.73073 -5.351432,25.0147 -6.754362,23.60008 -6.701046,27.62944 0.466414,35.25277 6.68674,7.11213 25.554829,8.51016 36.969879,2.73937 z m 5.37513,-100.821539 c 2.94328,-2.940996 5.35143,-7.753413 5.35143,-10.694409 0,-7.881796 -9.52734,-16.041579 -18.73,-16.041579 -9.20267,0 -18.73,8.159783 -18.73,16.041579 0,7.881796 9.52733,16.041614 18.73,16.041614 4.45953,0 10.40555,-2.376535 13.37857,-5.347205 z"
       id="path952" />
  </g>
</svg>
