<?xml version="1.0" encoding="UTF-8" standalone="no"?>
<svg
   xmlns:dc="http://purl.org/dc/elements/1.1/"
   xmlns:cc="http://creativecommons.org/ns#"
   xmlns:rdf="http://www.w3.org/1999/02/22-rdf-syntax-ns#"
   xmlns:svg="http://www.w3.org/2000/svg"
   xmlns="http://www.w3.org/2000/svg"
   xmlns:sodipodi="http://sodipodi.sourceforge.net/DTD/sodipodi-0.dtd"
   xmlns:inkscape="http://www.inkscape.org/namespaces/inkscape"
   version="1.1"
   id="svg1009"
   width="216"
   height="233"
   viewBox="0 0 216 233"
   sodipodi:docname="workshop-icon.svg"
   inkscape:version="1.0.1 (c497b03c, 2020-09-10)">
  <metadata
     id="metadata1015">
    <rdf:RDF>
      <cc:Work
         rdf:about="">
        <dc:format>image/svg+xml</dc:format>
        <dc:type
           rdf:resource="http://purl.org/dc/dcmitype/StillImage" />
        <dc:title />
      </cc:Work>
    </rdf:RDF>
  </metadata>
  <defs
     id="defs1013" />
  <sodipodi:namedview
     pagecolor="#ffffff"
     bordercolor="#666666"
     borderopacity="1"
     objecttolerance="10"
     gridtolerance="10"
     guidetolerance="10"
     inkscape:pageopacity="0"
     inkscape:pageshadow="2"
     inkscape:window-width="1238"
     inkscape:window-height="823"
     id="namedview1011"
     showgrid="false"
     inkscape:zoom="3.1545064"
     inkscape:cx="140.33469"
     inkscape:cy="211.60204"
     inkscape:window-x="0"
     inkscape:window-y="23"
     inkscape:window-maximized="0"
     inkscape:current-layer="g1017"
     inkscape:document-rotation="0" />
  <g
     inkscape:groupmode="layer"
     inkscape:label="Image"
     id="g1017">
    <path
       style="fill:#ffffff;stroke-width:0.40561"
       d="m 47.492008,213.22352 c 0,-0.41735 -0.435924,-0.59756 -1.445427,-0.59756 -1.009502,0 -1.445425,-0.1802 -1.445425,-0.59756 0,-0.39836 -0.412979,-0.59756 -1.238936,-0.59756 -0.825957,0 -1.238936,-0.19917 -1.238936,-0.59756 0,-0.39836 -0.412978,-0.59756 -1.238936,-0.59756 -0.681414,0 -1.238935,-0.18397 -1.238935,-0.40885 0,-0.22487 -0.811023,-1.19119 -1.802276,-2.14738 -0.991249,-0.95619 -1.923991,-2.20635 -2.072759,-2.77813 -0.148769,-0.57177 -0.545709,-1.03959 -0.882089,-1.03959 -0.404236,0 -0.6116,-0.4052 -0.6116,-1.19512 0,-0.79674 -0.206489,-1.19512 -0.619467,-1.19512 -0.473842,0 -0.619468,-0.50361 -0.619468,-2.14226 0,-1.41824 -0.209363,-2.30988 -0.619468,-2.6382 -0.939068,-0.75179 -0.939068,-54.57702 0,-54.57702 0.340707,0 0.619468,-0.2689 0.619468,-0.59756 0,-0.32867 0.278759,-0.59756 0.619468,-0.59756 0.340707,0 0.619467,-0.2689 0.619467,-0.59756 0,-0.32865 0.207704,-0.59756 0.461565,-0.59756 0.600628,0 3.668222,-2.9591 3.668222,-3.53848 0,-0.24487 0.278762,-0.44523 0.619468,-0.44523 0.340707,0 0.619469,-0.26892 0.619469,-0.59756 0,-0.32866 0.278759,-0.59756 0.619467,-0.59756 0.340707,0 0.619468,-0.2689 0.619468,-0.59756 0,-0.32866 0.278761,-0.59756 0.619467,-0.59756 0.340709,0 0.619469,-0.2689 0.619469,-0.59756 0,-0.32866 0.278761,-0.59756 0.619468,-0.59756 0.340708,0 0.619468,-0.2689 0.619468,-0.59756 0,-0.32866 0.214616,-0.59756 0.476923,-0.59756 0.562554,0 3.652865,-3.04738 3.652865,-3.60213 0,-0.20988 0.278759,-0.3816 0.619467,-0.3816 0.340708,0 0.619467,-0.2689 0.619467,-0.59756 0,-0.32864 0.278762,-0.59756 0.619468,-0.59756 0.340707,0 0.619469,-0.2689 0.619469,-0.59756 0,-0.32864 0.278759,-0.59755 0.619469,-0.59755 0.340706,0 0.619468,-0.26891 0.619468,-0.59755 0,-0.32866 0.207703,-0.59756 0.461564,-0.59756 0.600627,0 3.668221,-2.95911 3.668221,-3.5385 0,-0.24487 0.278762,-0.44523 0.619468,-0.44523 0.340708,0 0.619469,-0.2689 0.619469,-0.59756 0,-0.32866 0.27876,-0.59756 0.619469,-0.59756 0.340706,0 0.619467,-0.2689 0.619467,-0.59756 0,-0.32866 0.27876,-0.59756 0.619467,-0.59756 0.340708,0 0.619468,-0.2689 0.619468,-0.59756 0,-0.32866 0.278761,-0.59756 0.619467,-0.59756 0.34071,0 0.61947,-0.2689 0.61947,-0.59756 0,-0.32865 0.214615,-0.59755 0.476922,-0.59755 0.562555,0 3.652864,-3.04739 3.652864,-3.60213 0,-0.20987 0.27876,-0.3816 0.619468,-0.3816 0.340709,0 0.619469,-0.2689 0.619469,-0.59755 0,-0.32866 0.278761,-0.59756 0.619467,-0.59756 0.340708,0 0.619469,-0.2689 0.619469,-0.59756 0,-0.32866 0.27876,-0.59756 0.619468,-0.59756 0.340706,0 0.619468,-0.2689 0.619468,-0.59756 0,-0.32865 0.207704,-0.59756 0.461564,-0.59756 0.600627,0 3.668222,-2.9591 3.668222,-3.53848 0,-0.24488 0.278762,-0.44524 0.619468,-0.44524 0.340707,0 0.619468,-0.2689 0.619468,-0.59756 0,-0.32866 0.27876,-0.59756 0.619469,-0.59756 0.340707,0 0.619468,-0.2689 0.619468,-0.59756 0,-0.32865 0.27876,-0.59756 0.619467,-0.59756 0.340708,0 0.619468,-0.2689 0.619468,-0.59755 0,-0.32866 0.278761,-0.597561 0.619468,-0.597561 0.340707,0 0.619468,-0.268902 0.619468,-0.597559 0,-0.328656 0.214616,-0.597559 0.476925,-0.597559 0.56255,0 3.652862,-3.047382 3.652862,-3.602126 0,-0.209877 0.278761,-0.381596 0.619468,-0.381596 0.340706,0 0.619468,-0.268902 0.619468,-0.59756 0,-0.328657 0.278761,-0.597559 0.619467,-0.597559 0.340709,0 0.619469,-0.268899 0.619469,-0.597558 0,-0.328658 0.278761,-0.597558 0.619469,-0.597558 0.340706,0 0.619464,-0.268902 0.619464,-0.59756 0,-0.328656 0.213529,-0.597558 0.474505,-0.597558 0.260976,0 1.10621,-0.627436 1.87829,-1.394303 0.77207,-0.766867 1.67823,-1.394304 2.013693,-1.394304 0.347291,0 0.716605,-0.514591 0.8577,-1.195118 0.136282,-0.657314 0.503316,-1.195116 0.815626,-1.195116 0.312322,0 0.567846,-0.246494 0.567846,-0.547762 0,-0.301271 0.557525,-0.655324 1.238934,-0.786787 0.788663,-0.152152 1.238943,-0.4831 1.238943,-0.910598 0,-0.768674 2.348291,-2.933694 3.182039,-2.933694 0.30548,0 0.666924,-0.537804 0.803206,-1.195119 0.136282,-0.657314 0.503311,-1.195116 0.81564,-1.195116 0.312298,0 0.567832,-0.268903 0.567832,-0.59756 0,-0.328656 0.344551,-0.597558 0.765653,-0.597558 0.81584,0 2.95116,-1.693523 2.95116,-2.340569 0,-0.598529 2.46924,-2.838272 3.12911,-2.838272 0.32324,0 0.58769,-0.182416 0.58769,-0.405369 0,-0.222952 0.80443,0.404484 1.78762,1.394303 0.98319,0.989821 2.0053,1.799673 2.27138,1.799673 0.26607,0 0.48378,0.268901 0.48378,0.597558 0,0.328657 0.27875,0.597558 0.61947,0.597558 0.3407,0 0.61947,0.268902 0.61947,0.597559 0,0.328657 0.27875,0.597559 0.61946,0.597559 0.34071,0 0.61946,0.268902 0.61946,0.597558 0,0.328657 0.27877,0.59756 0.61947,0.59756 0.34071,0 0.61947,0.2689 0.61947,0.597558 0,0.328657 0.27877,0.597558 0.61947,0.597558 0.34071,0 0.61947,0.198818 0.61947,0.441816 0,0.611985 1.74504,2.331516 2.37463,2.339909 0.28392,0.0038 0.51623,0.275784 0.51623,0.604442 0,0.328657 0.27875,0.597557 0.61946,0.597557 0.34071,0 0.61946,0.268903 0.61946,0.59756 0,0.328657 0.27878,0.597558 0.61947,0.597558 0.34072,0 0.61947,0.268902 0.61947,0.597559 0,0.328657 0.27877,0.597559 0.61947,0.597559 0.3407,0 0.61947,0.268902 0.61947,0.597558 0,0.328658 0.27876,0.597558 0.61947,0.597558 0.3407,0 0.61947,0.200359 0.61947,0.445241 0,0.579384 3.0676,3.538484 3.66821,3.538484 0.25387,0 0.46157,0.268902 0.46157,0.597558 0,0.328658 0.27876,0.59756 0.61947,0.59756 0.3407,0 0.61948,0.2689 0.61948,0.597558 0,0.328659 0.27875,0.597558 0.61947,0.597558 0.34069,0 0.61945,0.268902 0.61945,0.597559 0,0.328658 0.27877,0.59756 0.61947,0.59756 0.34072,0 0.61947,0.171719 0.61947,0.381596 0,0.554744 3.09031,3.602126 3.65285,3.602126 0.26231,0 0.47693,0.268903 0.47693,0.597559 0,0.328657 0.27877,0.597559 0.61948,0.597559 0.3407,0 0.61947,0.268901 0.61947,0.597561 0,0.32865 0.27876,0.59755 0.61946,0.59755 0.34072,0 0.61947,0.26891 0.61947,0.59756 0,0.32866 0.27875,0.59756 0.61947,0.59756 0.3407,0 0.61947,0.2689 0.61947,0.59756 0,0.32866 0.27876,0.59756 0.61946,0.59756 0.34071,0 0.61946,0.20036 0.61946,0.44524 0,0.57938 3.0676,3.53848 3.66822,3.53848 0.25387,0 0.46158,0.26891 0.46158,0.59756 0,0.32866 0.27876,0.59756 0.61947,0.59756 0.34071,0 0.61946,0.2689 0.61946,0.59756 0,0.32866 0.27877,0.59756 0.61947,0.59756 0.34071,0 0.61946,0.2689 0.61946,0.59756 0,0.32865 0.27878,0.59755 0.61947,0.59755 0.34072,0 0.61948,0.17173 0.61948,0.3816 0,0.55474 3.0903,3.60213 3.65285,3.60213 0.26231,0 0.47693,0.2689 0.47693,0.59755 0,0.32866 0.27875,0.59756 0.61947,0.59756 0.34072,0 0.61947,0.2689 0.61947,0.59756 0,0.32866 0.27877,0.59756 0.61947,0.59756 0.3407,0 0.61947,0.2689 0.61947,0.59756 0,0.32866 0.27876,0.59756 0.61947,0.59756 0.3407,0 0.61947,0.2689 0.61947,0.59756 0,0.32866 0.27875,0.59756 0.61947,0.59756 0.3407,0 0.61945,0.20701 0.61945,0.46004 0,0.54266 3.15912,3.52369 3.73421,3.52369 0.21757,0 0.39557,0.2689 0.39557,0.59756 0,0.32864 0.27877,0.59755 0.61949,0.59755 0.3407,0 0.61946,0.26891 0.61946,0.59755 0,0.32866 0.27875,0.59756 0.61947,0.59756 0.34071,0 0.61947,0.26892 0.61947,0.59756 0,0.32866 0.27876,0.59756 0.61946,0.59756 0.34072,0 0.61947,0.17172 0.61947,0.3816 0,0.55475 3.09031,3.60213 3.65286,3.60213 0.2623,0 0.47691,0.2689 0.47691,0.59756 0,0.32866 0.27878,0.59756 0.61948,0.59756 0.34071,0 0.61947,0.2689 0.61947,0.59756 0,0.32866 0.27875,0.59756 0.61947,0.59756 0.34071,0 0.61948,0.2689 0.61948,0.59756 0,0.32866 0.27874,0.59756 0.61946,0.59756 0.34071,0 0.61946,0.2689 0.61946,0.59756 0,0.32864 0.27877,0.59756 0.61947,0.59756 0.34071,0 0.61948,0.20701 0.61948,0.46004 0,0.54266 3.15911,3.52367 3.73419,3.52367 0.21756,0 0.39558,0.26891 0.39558,0.59756 0,0.32866 0.27876,0.59756 0.61947,0.59756 0.34071,0 0.61946,0.26889 0.61946,0.59756 0,0.32866 0.27878,0.59756 0.61947,0.59756 0.5447,0 0.61947,3.33715 0.61947,27.64426 0,24.20519 -0.0771,27.67279 -0.61947,27.87357 -0.42452,0.15713 -0.61947,0.79738 -0.61947,2.03448 0,1.33903 -0.15995,1.80517 -0.61946,1.80517 -0.41298,0 -0.61947,0.39838 -0.61947,1.19512 0,0.75538 -0.21146,1.19512 -0.57469,1.19512 -0.31608,0 -0.6977,0.47276 -0.84805,1.05058 -0.15033,0.57781 -0.82093,1.51407 -1.49019,2.08057 -0.66926,0.56649 -1.21684,1.25898 -1.21684,1.53884 0,0.27988 -0.27877,0.50885 -0.61948,0.50885 -0.3407,0 -0.61947,0.26891 -0.61947,0.59756 0,0.39838 -0.41296,0.59755 -1.23892,0.59755 -0.82597,0 -1.23895,0.1992 -1.23895,0.59756 0,0.3738 -0.39148,0.59756 -1.04541,0.59756 -0.57497,0 -1.15238,0.2689 -1.28312,0.59756 -0.1363,0.34267 -0.75287,0.59756 -1.44542,0.59756 -0.69255,0 -1.30911,0.25491 -1.44542,0.59756 -0.20978,0.52732 -7.19849,0.59756 -59.45598,0.59756 -52.363129,0 -59.218252,-0.0691 -59.218252,-0.59756 z m 29.734463,-15.13816 c 0,-0.32866 0.185842,-0.59756 0.412978,-0.59756 0.53774,0 3.716809,-3.06661 3.716809,-3.58533 0,-0.21911 0.278761,-0.39838 0.619468,-0.39838 0.340706,0 0.619468,-0.2689 0.619468,-0.59756 0,-0.32865 0.278761,-0.59755 0.619467,-0.59755 0.340709,0 0.619469,-0.2689 0.619469,-0.59756 0,-0.32866 0.278761,-0.59755 0.619469,-0.59755 0.340706,0 0.619464,-0.2689 0.619464,-0.59756 0,-0.32868 0.189886,-0.59756 0.421961,-0.59756 0.550008,0 4.946767,-4.24126 4.946767,-4.77182 0,-0.22387 0.278756,-0.40703 0.619467,-0.40703 0.340709,0 0.619465,-0.2689 0.619465,-0.59755 0,-0.32866 0.278757,-0.59756 0.619467,-0.59756 0.34071,0 0.619467,-0.26891 0.619467,-0.59756 0,-0.32865 0.278767,-0.59756 0.619465,-0.59756 0.340711,0 0.619478,-0.2689 0.619478,-0.59756 0,-0.32865 0.185839,-0.59756 0.412974,-0.59756 0.537737,0 3.71681,-3.06664 3.71681,-3.58536 0,-0.21911 0.27876,-0.39836 0.619465,-0.39836 0.340715,0 0.619468,-0.26891 0.619468,-0.59756 0,-0.32866 0.278752,-0.59756 0.619463,-0.59756 0.34071,0 0.61948,-0.2689 0.61948,-0.59756 0,-0.32866 0.27876,-0.59756 0.61946,-0.59756 0.34071,0 0.61948,-0.2689 0.61948,-0.59756 0,-0.32865 0.19072,-0.59756 0.42384,-0.59756 0.23311,0 1.26013,-0.80671 2.28226,-1.79267 1.02211,-0.98598 1.95268,-1.79268 2.06795,-1.79268 0.11529,0 0.75451,0.5378 1.42062,1.19512 0.66611,0.65731 1.4032,1.19512 1.63801,1.19512 0.23479,0 0.42688,0.2689 0.42688,0.59755 0,0.32866 0.27878,0.59756 0.61948,0.59756 0.3407,0 0.61947,0.26891 0.61947,0.59756 0,0.32866 0.27875,0.59756 0.61947,0.59756 0.3407,0 0.61947,0.2689 0.61947,0.59756 0,0.32866 0.27875,0.59756 0.61946,0.59756 0.34071,0 0.61946,0.2689 0.61946,0.59756 0,0.32865 0.27877,0.59756 0.61947,0.59756 0.34071,0 0.62267,0.22407 0.62661,0.49796 0.009,0.60731 1.79128,2.29065 2.42569,2.29065 0.25192,0 0.45803,0.26889 0.45803,0.59756 0,0.32865 0.27875,0.59755 0.61947,0.59755 0.3407,0 0.61947,0.26891 0.61947,0.59756 0,0.32866 0.27875,0.59756 0.61946,0.59756 0.34071,0 0.61946,0.26891 0.61946,0.59756 0,0.32865 0.27878,0.59756 0.61947,0.59756 0.34072,0 0.61947,0.2689 0.61947,0.59756 0,0.32865 0.27877,0.59755 0.61947,0.59755 0.3407,0 0.61947,0.19328 0.61947,0.42952 0,0.47997 3.28837,3.5542 3.80178,3.5542 0.18041,0 0.32801,0.26889 0.32801,0.59757 0,0.32866 0.27875,0.59756 0.61946,0.59756 0.34071,0 0.61947,0.26888 0.61947,0.59756 0,0.32866 0.27876,0.59756 0.61947,0.59756 0.3407,0 0.61948,0.26889 0.61948,0.59755 0,0.32866 0.27875,0.59756 0.61947,0.59756 0.34069,0 0.61945,0.2689 0.61945,0.59755 0,0.32866 0.27877,0.59756 0.61947,0.59756 0.34072,0 0.61947,0.16507 0.61947,0.36682 0,0.48942 3.22765,3.61689 3.73277,3.61689 0.21836,0 0.39701,0.2689 0.39701,0.59756 0,0.48692 0.6883,0.59756 3.71682,0.59756 3.02849,0 3.7168,-0.11071 3.7168,-0.59756 0,-0.32866 0.27876,-0.59756 0.61947,-0.59756 0.34071,0 0.61947,-0.2689 0.61947,-0.59756 0,-0.32864 0.21461,-0.59756 0.47692,-0.59756 0.53752,0 3.65287,-3.0357 3.65287,-3.55949 0,-0.18644 0.27875,-0.44215 0.61947,-0.56827 0.88834,-0.32886 0.88834,-5.35863 0,-5.68747 -0.34072,-0.12613 -0.61947,-0.47902 -0.61947,-0.78424 0,-0.30522 -0.27876,-0.55495 -0.61948,-0.55495 -0.34069,0 -0.61947,-0.20703 -0.61947,-0.46006 0,-0.54264 -3.15911,-3.52365 -3.73418,-3.52365 -0.21759,0 -0.3956,-0.2689 -0.3956,-0.59755 0,-0.32867 -0.27877,-0.59756 -0.61946,-0.59756 -0.34071,0 -0.61947,-0.26891 -0.61947,-0.59756 0,-0.32867 -0.27877,-0.59757 -0.61947,-0.59757 -0.34071,0 -0.61948,-0.26889 -0.61948,-0.59756 0,-0.32866 -0.27875,-0.59756 -0.61946,-0.59756 -0.3407,0 -0.61946,-0.17171 -0.61946,-0.38159 0,-0.55475 -3.09032,-3.60213 -3.65286,-3.60213 -0.26231,0 -0.47694,-0.2689 -0.47694,-0.59756 0,-0.32865 -0.27876,-0.59755 -0.61945,-0.59755 -0.34072,0 -0.61948,-0.26891 -0.61948,-0.59756 0,-0.32866 -0.27876,-0.59756 -0.61947,-0.59756 -0.3407,0 -0.61947,-0.26891 -0.61947,-0.59756 0,-0.32867 -0.27876,-0.59756 -0.61946,-0.59756 -0.34071,0 -0.61947,-0.2689 -0.61947,-0.59757 0,-0.32865 -0.27875,-0.59756 -0.61947,-0.59756 -0.3407,0 -0.61947,-0.20701 -0.61947,-0.46005 0,-0.54266 -3.15911,-3.52366 -3.73419,-3.52366 -0.21757,0 -0.3956,-0.26891 -0.3956,-0.59756 0,-0.32866 -0.27875,-0.59756 -0.61947,-0.59756 -0.3407,0 -0.61946,-0.2689 -0.61946,-0.59756 0,-0.32866 -0.27876,-0.59756 -0.61947,-0.59756 -0.34071,0 -0.61946,-0.2689 -0.61946,-0.59756 0,-0.32865 -0.27877,-0.59756 -0.61947,-0.59756 -0.34071,0 -0.61947,-0.2689 -0.61947,-0.59755 0,-0.32867 -0.27877,-0.59756 -0.61947,-0.59756 -0.3407,0 -0.61947,-0.26261 -0.61947,-0.58354 0,-0.32095 -0.37169,-0.77543 -0.82596,-1.00995 -1.28212,-0.66191 -0.99827,-1.48332 1.23894,-3.58536 1.13569,-1.06707 2.0649,-2.13104 2.0649,-2.36436 0,-0.23332 0.27875,-0.42425 0.61946,-0.42425 0.34071,0 0.61947,-0.2689 0.61947,-0.59756 0,-0.32865 0.27876,-0.59756 0.61946,-0.59756 0.34072,0 0.61947,-0.2689 0.61947,-0.59755 0,-0.32865 0.27877,-0.59756 0.61947,-0.59756 0.3407,0 0.61948,-0.26891 0.61948,-0.59756 0,-0.32865 0.19209,-0.59755 0.42688,-0.59755 0.23481,0 0.97189,-0.53781 1.63799,-1.19511 1.3269,-1.3094 2.06491,-1.52296 2.06491,-0.59756 0,0.32866 0.27876,0.59756 0.61947,0.59756 0.3407,0 0.61946,0.26889 0.61946,0.59756 0,0.32865 0.2589,0.59755 0.57528,0.59755 0.31641,0 0.68227,0.2689 0.81301,0.59755 0.13073,0.32865 0.52229,0.59756 0.87014,0.59756 0.34783,0 0.63242,0.26891 0.63242,0.59756 0,0.32865 0.27877,0.59755 0.61948,0.59755 0.3407,0 0.61947,0.26891 0.61947,0.59756 0,0.32866 0.27876,0.59756 0.61946,0.59756 0.34072,0 0.61947,0.27453 0.61947,0.61007 0,0.33553 0.27875,0.71325 0.61947,0.83937 0.3407,0.12612 0.61947,0.47903 0.61947,0.78423 0,0.30522 0.27876,0.55494 0.61946,0.55494 0.34071,0 0.61946,0.26891 0.61946,0.59756 0,0.32866 0.27877,0.59756 0.61948,0.59756 0.3407,0 0.61947,0.2689 0.61947,0.59756 0,0.32866 0.28458,0.59756 0.63243,0.59756 0.34784,0 0.73939,0.2689 0.87014,0.59756 0.13075,0.32866 0.49659,0.59756 0.81298,0.59756 0.31642,0 0.5753,0.2689 0.5753,0.59756 0,0.46476 0.55062,0.59756 2.47786,0.59756 h 2.47789 v -11.75198 c 0,-10.18064 -0.0829,-11.75199 -0.61947,-11.75199 -0.34072,0 -0.61947,-0.20036 -0.61947,-0.44527 0,-0.57937 -3.0676,-3.53846 -3.66823,-3.53846 -0.25386,0 -0.46156,-0.2689 -0.46156,-0.59756 0,-0.32866 -0.27876,-0.59756 -0.61947,-0.59756 -0.34071,0 -0.61947,-0.2689 -0.61947,-0.59756 0,-0.32866 -0.27877,-0.59756 -0.61946,-0.59756 -0.34071,0 -0.61947,-0.2689 -0.61947,-0.59756 0,-0.32866 -0.27877,-0.59756 -0.61947,-0.59756 -0.34071,0 -0.61948,-0.17514 -0.61948,-0.3892 0,-0.55686 -4.32458,-4.78963 -4.89351,-4.78963 -0.26137,0 -0.47521,-0.26891 -0.47521,-0.59756 0,-0.32866 -0.27876,-0.59756 -0.61945,-0.59756 -0.34072,0 -0.61948,-0.2689 -0.61948,-0.59756 0,-0.32866 -0.27876,-0.59756 -0.61947,-0.59756 -0.3407,0 -0.61947,-0.2689 -0.61947,-0.59756 0,-0.32866 -0.27876,-0.59756 -0.61946,-0.59756 -0.34071,0 -0.61947,-0.20036 -0.61947,-0.44523 0,-0.57939 -3.0676,-3.5385 -3.66822,-3.5385 -0.25386,0 -0.46156,-0.2689 -0.46156,-0.59756 0,-0.32865 -0.27878,-0.59755 -0.61948,-0.59755 -0.3407,0 -0.61947,-0.26891 -0.61947,-0.59756 0,-0.32866 -0.27875,-0.59756 -0.61947,-0.59756 -0.3407,0 -0.61946,-0.26891 -0.61946,-0.59756 0,-0.32866 -0.27876,-0.59756 -0.61947,-0.59756 -0.34071,0 -0.61946,-0.24972 -0.61946,-0.55493 0,-0.72019 -0.9084,-1.03856 -2.96329,-1.03856 -1.3095,0 -1.70209,0.16702 -1.8728,0.79676 -0.11959,0.44096 -0.56331,0.79673 -0.99378,0.79673 -0.42779,0 -0.77779,0.2689 -0.77779,0.59756 0,0.32865 -0.27878,0.59756 -0.61947,0.59756 -0.34072,0 -0.61947,0.2689 -0.61947,0.59756 0,0.32865 -0.27876,0.59756 -0.61947,0.59756 -0.3407,0 -0.61947,0.2689 -0.61947,0.59755 0,0.32866 -0.27876,0.59756 -0.61947,0.59756 -0.3407,0 -0.61947,0.2689 -0.61947,0.59756 0,0.32866 -0.27875,0.59756 -0.61946,0.59756 -0.34071,0 -0.61946,0.2689 -0.61946,0.59756 0,0.32866 -0.27877,0.59756 -0.61947,0.59756 -0.34415,0 -0.61947,0.3541 -0.61947,0.79674 0,0.44989 -0.27532,0.79675 -0.63243,0.79675 -0.34783,0 -0.7394,0.2689 -0.87015,0.59756 -0.13073,0.32866 -0.49659,0.59756 -0.813,0.59756 -1.01749,0 -0.70966,2.85187 0.41926,3.88412 0.53916,0.49299 1.18639,0.89634 1.43829,0.89634 0.25192,0 0.45803,0.26892 0.45803,0.59756 0,0.32866 0.27875,0.59756 0.61947,0.59756 0.3407,0 0.61947,0.24973 0.61947,0.55494 0,0.30522 0.27875,0.65812 0.61946,0.78424 0.34071,0.12612 0.61946,0.50382 0.61946,0.83938 0,0.33553 0.27877,0.61005 0.61947,0.61005 0.34071,0 0.61947,0.2689 0.61947,0.59756 0,0.32866 0.27877,0.59756 0.61947,0.59756 0.34071,0 0.61947,0.2689 0.61947,0.59756 0,0.32866 0.25888,0.59756 0.57527,0.59756 1.20819,0 1.21829,2.09969 0.0117,2.54611 -0.32316,0.11963 -0.58755,0.49201 -0.58755,0.82754 0,0.33554 -0.27876,0.61008 -0.61946,0.61008 -0.34071,0 -0.61947,0.2689 -0.61947,0.59756 0,0.32865 -0.27877,0.59755 -0.61947,0.59755 -0.34071,0 -0.61947,0.26891 -0.61947,0.59756 0,0.32865 -0.27876,0.59756 -0.61947,0.59756 -0.3407,0 -0.61946,0.26891 -0.61946,0.59755 0,0.32866 -0.27876,0.59756 -0.61947,0.59756 -0.34071,0 -0.61947,0.26891 -0.61947,0.59756 0,0.32866 -0.18584,0.59756 -0.41299,0.59756 -0.22713,0 -1.15633,0.71706 -2.06488,1.59349 -0.90856,0.87642 -1.65192,1.77276 -1.65192,1.99186 0,0.2191 -0.27875,0.39838 -0.61947,0.39838 -0.34071,0 -0.61947,-0.17928 -0.61947,-0.39838 0,-0.2191 -0.74336,-1.11544 -1.65191,-1.99186 -0.90855,-0.87643 -1.83776,-1.59349 -2.06489,-1.59349 -0.22715,0 -0.41298,-0.2689 -0.41298,-0.59756 0,-0.32865 -0.27876,-0.59756 -0.61948,-0.59756 -0.34069,0 -0.61946,-0.2689 -0.61946,-0.59756 0,-0.32864 -0.27876,-0.59755 -0.61948,-0.59755 -0.340691,0 -0.619453,-0.26891 -0.619453,-0.59756 0,-0.32865 -0.278763,-0.59756 -0.619468,-0.59756 -0.340715,0 -0.61947,-0.2689 -0.61947,-0.59755 0,-0.32866 -0.278768,-0.59756 -0.619467,-0.59756 -0.34071,0 -0.619466,-0.22908 -0.619466,-0.50903 0,-0.27997 -0.357852,-0.8046 -0.795234,-1.16586 -0.884,-0.73011 -0.730884,-2.30884 0.223921,-2.30884 0.314227,0 0.571313,-0.2689 0.571313,-0.59756 0,-0.32866 0.278756,-0.59756 0.619466,-0.59756 0.340699,0 0.619467,-0.2689 0.619467,-0.59756 0,-0.32866 0.278755,-0.59756 0.61947,-0.59756 0.340705,0 0.619468,-0.27452 0.619468,-0.61005 0,-0.33556 0.278762,-0.71326 0.619453,-0.83938 0.34072,-0.12612 0.61948,-0.47902 0.61948,-0.78424 0,-0.30521 0.27877,-0.55494 0.61946,-0.55494 0.34072,0 0.61948,-0.2689 0.61948,-0.59756 0,-0.32864 0.28459,-0.59756 0.63242,-0.59756 0.34784,0 0.73941,-0.2689 0.87015,-0.59756 0.13073,-0.32864 0.4966,-0.59755 0.813,-0.59755 0.40649,0 0.57529,-0.52595 0.57529,-1.79267 0,-1.26672 -0.1688,-1.79268 -0.57529,-1.79268 -0.3164,0 -0.68227,-0.2689 -0.813,-0.59756 -0.13074,-0.32866 -0.52231,-0.59756 -0.87015,-0.59756 -0.35711,0 -0.63242,-0.34686 -0.63242,-0.79675 0,-0.44264 -0.27532,-0.79674 -0.61948,-0.79674 -0.34069,0 -0.61946,-0.2689 -0.61946,-0.59756 0,-0.32866 -0.27876,-0.59756 -0.61948,-0.59756 -0.340691,0 -0.619453,-0.2689 -0.619453,-0.59756 0,-0.32866 -0.278763,-0.59756 -0.619468,-0.59756 -0.340715,0 -0.61947,-0.2689 -0.61947,-0.59756 0,-0.32865 -0.278768,-0.59755 -0.619467,-0.59755 -0.34071,0 -0.619466,-0.26891 -0.619466,-0.59756 0,-0.32866 -0.278768,-0.59756 -0.619466,-0.59756 -0.34071,0 -0.619478,-0.26891 -0.619478,-0.59756 0,-0.32866 -0.350006,-0.59756 -0.777784,-0.59756 -0.43048,0 -0.874237,-0.35577 -0.993787,-0.79673 -0.170714,-0.62974 -0.563307,-0.79676 -1.872793,-0.79676 -2.054901,0 -2.963286,0.31837 -2.963286,1.03856 0,0.30521 -0.278767,0.55493 -0.619477,0.55493 -0.3407,0 -0.619467,0.2689 -0.619467,0.59756 0,0.32865 -0.278757,0.59756 -0.619466,0.59756 -0.34071,0 -0.619467,0.2689 -0.619467,0.59756 0,0.32865 -0.278756,0.59756 -0.619466,0.59756 -0.340711,0 -0.619467,0.2689 -0.619467,0.59755 0,0.32866 -0.207701,0.59756 -0.461568,0.59756 -0.600628,0 -3.668221,2.95911 -3.668221,3.5385 0,0.24487 -0.278761,0.44523 -0.619469,0.44523 -0.340707,0 -0.619467,0.2689 -0.619467,0.59756 0,0.32866 -0.27876,0.59756 -0.619468,0.59756 -0.340708,0 -0.619469,0.2689 -0.619469,0.59756 0,0.32866 -0.27876,0.59756 -0.619468,0.59756 -0.340707,0 -0.619468,0.2689 -0.619468,0.59756 0,0.32865 -0.189878,0.59756 -0.421957,0.59756 -0.550009,0 -4.946766,4.24125 -4.946766,4.7718 0,0.22387 -0.27876,0.40703 -0.619466,0.40703 -0.340709,0 -0.619468,0.2689 -0.619468,0.59756 0,0.32866 -0.278762,0.59756 -0.619469,0.59756 -0.340708,0 -0.619469,0.2689 -0.619469,0.59756 0,0.32866 -0.27876,0.59756 -0.619467,0.59756 -0.340708,0 -0.619468,0.2689 -0.619468,0.59756 0,0.32866 -0.207704,0.59756 -0.461565,0.59756 -0.600627,0 -3.668221,2.95909 -3.668221,3.53846 0,0.24491 -0.278762,0.44527 -0.619469,0.44527 -0.536638,0 -0.619468,1.57135 -0.619468,11.75199 v 11.75198 h 2.477873 c 1.927233,0 2.477872,-0.1328 2.477872,-0.59756 0,-0.32866 0.284592,-0.59756 0.632428,-0.59756 0.347836,0 0.7394,-0.2689 0.870142,-0.59756 0.130741,-0.32866 0.49659,-0.59756 0.812996,-0.59756 0.316405,0 0.575285,-0.2689 0.575285,-0.59756 0,-0.32866 0.278759,-0.59756 0.619468,-0.59756 0.340706,0 0.619466,-0.2689 0.619466,-0.59756 0,-0.32865 0.278762,-0.59756 0.619468,-0.59756 0.340708,0 0.619468,-0.24972 0.619468,-0.55494 0,-0.3052 0.278762,-0.65811 0.61947,-0.78423 0.340706,-0.12612 0.619467,-0.50384 0.619467,-0.83937 0,-0.33554 0.27876,-0.61007 0.619468,-0.61007 0.340707,0 0.619467,-0.2689 0.619467,-0.59756 0,-0.32865 0.278761,-0.59756 0.619468,-0.59756 0.340709,0 0.619469,-0.2689 0.619469,-0.59755 0,-0.33198 0.367092,-0.59756 0.825957,-0.59756 0.458866,0 0.825957,-0.26558 0.825957,-0.59756 0,-0.32865 0.278761,-0.59755 0.619469,-0.59755 0.340708,0 0.619468,-0.2689 0.619468,-0.59755 0,-0.32867 0.27876,-0.59756 0.619467,-0.59756 0.340708,0 0.619469,-0.2689 0.619469,-0.59756 0,-0.9254 0.738009,-0.71184 2.064893,0.59756 0.666105,0.6573 1.403203,1.19511 1.637997,1.19511 0.234789,0 0.426899,0.2689 0.426899,0.59755 0,0.32865 0.278756,0.59756 0.619467,0.59756 0.34071,0 0.619466,0.26891 0.619466,0.59756 0,0.32865 0.278757,0.59755 0.619467,0.59755 0.340709,0 0.619466,0.26891 0.619466,0.59756 0,0.32866 0.278767,0.59756 0.619467,0.59756 0.34071,0 0.619477,0.26891 0.619477,0.59756 0,0.32866 0.278757,0.59756 0.619467,0.59756 0.34071,0 0.619466,0.19882 0.619466,0.44182 0,0.61197 1.745042,2.33152 2.374626,2.3399 1.017441,0.0136 0.489457,1.72984 -0.9292,3.02049 -0.794983,0.72326 -1.445426,1.5063 -1.445426,1.74012 0,0.23382 -0.278756,0.42512 -0.619466,0.42512 -0.34071,0 -0.619467,0.26891 -0.619467,0.59756 0,0.32866 -0.278767,0.59756 -0.619477,0.59756 -0.3407,0 -0.619467,0.2689 -0.619467,0.59756 0,0.32866 -0.278757,0.59756 -0.619466,0.59756 -0.34071,0 -0.619467,0.2689 -0.619467,0.59756 0,0.32865 -0.278756,0.59756 -0.619466,0.59756 -0.340711,0 -0.619467,0.2689 -0.619467,0.59756 0,0.32865 -0.232303,0.60065 -0.516227,0.60444 -0.629582,0.008 -2.374627,1.72792 -2.374627,2.33991 0,0.243 -0.278761,0.4418 -0.619467,0.4418 -0.340708,0 -0.619468,0.26891 -0.619468,0.59756 0,0.32867 -0.278761,0.59757 -0.619469,0.59757 -0.340707,0 -0.619467,0.26889 -0.619467,0.59756 0,0.32865 -0.27876,0.59756 -0.619468,0.59756 -0.340708,0 -0.619469,0.2689 -0.619469,0.59756 0,0.32865 -0.27876,0.59756 -0.619468,0.59756 -0.340707,0 -0.619468,0.2689 -0.619468,0.59755 0,0.32866 -0.18584,0.59756 -0.412978,0.59756 -0.53774,0 -3.716809,3.06663 -3.716809,3.58536 0,0.21909 -0.27876,0.39836 -0.619468,0.39836 -0.340706,0 -0.619468,0.2689 -0.619468,0.59756 0,0.32867 -0.27876,0.59756 -0.619466,0.59756 -0.340709,0 -0.619468,0.2689 -0.619468,0.59757 0,0.32865 -0.278762,0.59756 -0.619469,0.59756 -0.340708,0 -0.619469,0.26889 -0.619469,0.59756 0,0.32865 -0.27876,0.59755 -0.619467,0.59755 -0.340708,0 -0.619468,0.26891 -0.619468,0.59756 0,0.32866 -0.206107,0.59756 -0.458015,0.59756 -0.634422,0 -2.417,1.68332 -2.425701,2.29064 -0.0039,0.27388 -0.285895,0.49795 -0.626602,0.49795 -0.340709,0 -0.619468,0.24973 -0.619468,0.55495 0,0.30522 -0.278762,0.65811 -0.619469,0.78424 -0.454756,0.16833 -0.619468,0.86061 -0.619468,2.60358 0,1.57931 0.207415,2.57436 0.619468,2.97185 0.340707,0.32866 0.619469,0.69245 0.619469,0.80842 0,0.4313 3.193727,3.43138 3.652863,3.43138 0.262308,0 0.476923,0.26892 0.476923,0.59756 0,0.32866 0.27876,0.59756 0.619468,0.59756 0.340707,0 0.619467,0.2689 0.619467,0.59756 0,0.48692 0.688299,0.59756 3.716808,0.59756 3.02851,0 3.716809,-0.11071 3.716809,-0.59756 z"
       id="path1021" />
    <path
       style="fill:#ffffff;stroke-width:0.40561"
       d="m 13.065433,137.93114 c -0.130743,-0.32865 -0.621059,-0.59756 -1.089591,-0.59756 -0.468535,0 -0.958851,-0.2689 -1.089593,-0.59755 -0.135502,-0.34063 -0.75143,-0.59756 -1.432464,-0.59756 -1.0030323,0 -1.1947515,-0.16182 -1.1947515,-1.00845 0,-0.55464 -0.2787615,-1.11162 -0.6194688,-1.23772 -0.3407073,-0.12613 -0.6194677,-0.56867 -0.6194677,-0.98344 0,-0.41477 -0.2787602,-0.75412 -0.6194679,-0.75412 -0.9169263,0 -0.9169263,-8.56886 0,-8.90827 0.3407077,-0.12612 0.6194679,-0.66392 0.6194679,-1.19512 0,-0.53119 0.2787604,-1.06899 0.6194677,-1.19511 0.3407073,-0.12612 0.6194688,-0.50383 0.6194688,-0.83937 0,-0.33552 0.2787595,-0.61005 0.6194677,-0.61005 0.3407073,0 0.6194678,-0.2689 0.6194678,-0.59756 0,-0.32866 0.241018,-0.59756 0.535597,-0.59756 0.294578,0 0.991479,-0.53022 1.548669,-1.17823 0.557191,-0.64805 1.245374,-1.18585 1.529297,-1.19512 0.283925,-0.008 0.516224,-0.28579 0.516224,-0.61445 0,-0.32865 0.27876,-0.59755 0.619467,-0.59755 0.340709,0 0.619468,-0.24973 0.619468,-0.55493 0,-0.30523 0.278762,-0.65813 0.619469,-0.78425 0.340707,-0.12612 0.619468,-0.50382 0.619468,-0.83937 0,-0.33553 0.27876,-0.61006 0.619468,-0.61006 0.340707,0 0.619467,-0.2689 0.619467,-0.59756 0,-0.32866 0.278761,-0.59756 0.619469,-0.59756 0.340707,0 0.619469,-0.2689 0.619469,-0.59755 0,-0.32866 0.205064,-0.59756 0.455699,-0.59756 0.594262,0 6.151958,-5.36114 6.151958,-5.93438 0,-0.24177 0.278761,-0.43958 0.619468,-0.43958 0.340708,0 0.619468,-0.2689 0.619468,-0.59756 0,-0.32866 0.284594,-0.59756 0.63243,-0.59756 0.347836,0 0.739399,-0.2689 0.870141,-0.59756 0.130742,-0.32865 0.49659,-0.59756 0.812997,-0.59756 0.316405,0 0.575283,-0.2689 0.575283,-0.59755 0,-0.32866 0.278761,-0.597561 0.619469,-0.597561 0.340706,0 0.627337,-0.224089 0.636955,-0.497968 0.0097,-0.273879 0.567139,-0.937725 1.238937,-1.475203 0.671796,-0.53749 1.221448,-1.209744 1.221448,-1.493902 0,-0.284158 0.278759,-0.516654 0.619468,-0.516654 0.340707,0 0.619467,-0.268903 0.619467,-0.597556 0,-0.328657 0.176266,-0.597557 0.391701,-0.597557 0.215437,0 0.865879,-0.423908 1.445427,-0.942021 L 37.16754,92.425319 V 71.656041 c 0,-20.238115 0.02112,-20.789654 0.825957,-21.566023 0.781908,-0.754252 1.376596,-0.796745 11.150424,-0.796745 8.901987,0 10.324468,0.08234 10.324468,0.597557 0,0.328659 0.27876,0.59756 0.619467,0.59756 0.531867,0 0.619467,1.239381 0.619467,8.764193 v 8.764195 h 0.988263 c 0.543547,0 1.095231,-0.268902 1.225978,-0.597561 0.130741,-0.328656 0.522301,-0.597557 0.870141,-0.597557 0.347836,0 0.632427,-0.268901 0.632427,-0.597558 0,-0.328659 0.27876,-0.59756 0.619468,-0.59756 0.340709,0 0.619469,-0.249721 0.619469,-0.554936 0,-0.305217 0.278761,-0.658126 0.619467,-0.784242 0.340708,-0.126118 0.619469,-0.503834 0.619469,-0.839367 0,-0.335534 0.27876,-0.610062 0.619468,-0.610062 0.340706,0 0.619468,-0.268901 0.619468,-0.597558 0,-0.328658 0.192105,-0.59756 0.426895,-0.59756 0.234795,0 0.971893,-0.537801 1.637998,-1.195117 0.666106,-0.657313 1.403202,-1.195117 1.637997,-1.195117 0.234791,0 0.426896,-0.268902 0.426896,-0.597558 0,-0.328658 0.278762,-0.597558 0.619468,-0.597558 0.340707,0 0.619468,-0.18531 0.619468,-0.411801 0,-0.226489 0.557522,-0.937517 1.238937,-1.580062 0.681414,-0.642546 1.238935,-1.353574 1.238935,-1.580062 0,-0.22649 0.278761,-0.411799 0.619468,-0.411799 0.340707,0 0.619468,-0.268903 0.619468,-0.597561 0,-0.328656 0.284592,-0.597557 0.632426,-0.597557 0.347841,0 0.739403,-0.268901 0.870144,-0.597559 0.130744,-0.328658 0.49659,-0.597559 0.812998,-0.597559 0.316403,0 0.575281,-0.268902 0.575281,-0.597558 0,-0.328658 0.278763,-0.597559 0.619469,-0.597559 0.340709,0 0.619469,-0.268901 0.619469,-0.59756 0,-0.328655 0.278761,-0.597557 0.619468,-0.597557 0.340706,0 0.619468,-0.249722 0.619468,-0.554938 0,-0.305216 0.278761,-0.658124 0.619467,-0.784241 0.340709,-0.126118 0.619469,-0.503833 0.619469,-0.839367 0,-0.335534 0.278761,-0.610062 0.619469,-0.610062 0.340706,0 0.619464,-0.268901 0.619464,-0.597557 0,-0.328658 0.241016,-0.59756 0.535603,-0.59756 0.294575,0 0.991472,-0.530211 1.548666,-1.178246 0.557194,-0.648038 1.245377,-1.18584 1.5293,-1.195119 0.283923,-0.0092 0.516225,-0.28577 0.516225,-0.614427 0,-0.328659 0.278757,-0.59756 0.619467,-0.59756 0.340699,0 0.619467,-0.249722 0.619467,-0.554936 0,-0.305216 0.278756,-0.658126 0.619467,-0.784244 0.340709,-0.126117 0.619465,-0.503831 0.619465,-0.839364 0,-0.335536 0.278757,-0.610062 0.619467,-0.610062 0.34071,0 0.619467,-0.268903 0.619467,-0.597559 0,-0.328658 0.278767,-0.597559 0.619465,-0.597559 0.340711,0 0.619478,-0.268902 0.619478,-0.597559 0,-0.328657 0.284585,-0.597558 0.632423,-0.597558 0.347839,0 0.739405,-0.268902 0.870144,-0.59756 0.13075,-0.328657 0.496585,-0.597557 0.813002,-0.597557 0.316394,0 0.575283,-0.268903 0.575283,-0.597559 0,-0.328658 0.278756,-0.59756 0.619466,-0.59756 0.340698,0 0.619466,-0.2689 0.619466,-0.597558 0,-0.328657 0.27876,-0.597558 0.619465,-0.597558 0.340715,0 0.619468,-0.249721 0.619468,-0.554938 0,-0.305215 0.278752,-0.658125 0.619463,-0.784242 0.34071,-0.126118 0.61948,-0.503833 0.61948,-0.839366 0,-0.335534 0.27876,-0.610061 0.61946,-0.610061 0.34071,0 0.61948,-0.268901 0.61948,-0.59756 0,-0.328656 0.28459,-0.597558 0.63242,-0.597558 0.34784,0 0.73941,-0.268902 0.87014,-0.597558 0.14263,-0.358525 0.76521,-0.597559 1.55637,-0.597559 0.72525,0 1.52068,-0.194887 1.7676,-0.433084 0.3233,-0.311863 0.52663,-0.311863 0.72644,0 0.15261,0.238197 0.73695,0.433084 1.2985,0.433084 0.56157,0 1.12802,0.268901 1.25875,0.597559 0.13074,0.328656 0.4966,0.597558 0.813,0.597558 0.3164,0 0.57529,0.268902 0.57529,0.597558 0,0.328659 0.27875,0.59756 0.61947,0.59756 0.3407,0 0.61947,0.197813 0.61947,0.439583 0,0.573245 5.55769,5.934376 6.15196,5.934376 0.25063,0 0.4557,0.268901 0.4557,0.597558 0,0.328657 0.27875,0.597559 0.61946,0.597559 0.34071,0 0.61946,0.18695 0.61946,0.415445 0,0.542108 6.85394,7.153631 7.41591,7.153631 0.23688,0 0.43069,0.268902 0.43069,0.59756 0,0.328656 0.27876,0.597557 0.61947,0.597557 0.3407,0 0.61948,0.197813 0.61948,0.439583 0,0.573245 5.55769,5.934377 6.15194,5.934377 0.25065,0 0.4557,0.268901 0.4557,0.597557 0,0.328658 0.27877,0.597561 0.61948,0.597561 0.3407,0 0.61947,0.177926 0.61947,0.395393 0,0.558069 5.5626,5.978564 6.1353,5.978564 0.2598,0 0.47236,0.268903 0.47236,0.59756 0,0.328657 0.27875,0.597557 0.61947,0.597557 0.34069,0 0.61946,0.268902 0.61946,0.59756 0,0.328657 0.27876,0.597558 0.61947,0.597558 0.34071,0 0.61946,0.197814 0.61946,0.439585 0,0.573243 5.5577,5.934374 6.15195,5.934374 0.25064,0 0.45571,0.268902 0.45571,0.59756 0,0.328657 0.27875,0.597557 0.61947,0.597557 0.34072,0 0.61947,0.185313 0.61947,0.411798 0,0.22649 0.55751,0.937519 1.23894,1.580065 0.68141,0.642547 1.23894,1.353574 1.23894,1.580066 0,0.226485 0.23228,0.419389 0.51623,0.428667 0.28391,0.0092 0.97208,0.547081 1.52928,1.195118 0.55719,0.648036 1.25409,1.178246 1.54868,1.178246 0.29458,0 0.53558,0.268902 0.53558,0.597558 0,0.328657 0.27875,0.59756 0.61947,0.59756 0.34071,0 0.61946,0.2689 0.61946,0.597558 0,0.328657 0.27877,0.597558 0.61949,0.597558 0.3407,0 0.61946,0.205039 0.61946,0.455643 0,0.552442 5.61923,5.918317 6.19777,5.918317 0.22544,0 0.40987,0.268902 0.40987,0.597558 0,0.328658 0.27878,0.597558 0.61948,0.597558 0.34071,0 0.61947,0.177929 0.61947,0.395397 0,0.558067 5.5626,5.978562 6.13531,5.978562 0.25979,0 0.47235,0.268902 0.47235,0.597559 0,0.328658 0.27875,0.59756 0.61947,0.59756 0.34069,0 0.61946,0.2689 0.61946,0.597557 0,0.328653 0.27876,0.597556 0.61947,0.597556 0.34071,0 0.61946,0.205038 0.61946,0.455642 0,0.552444 5.61925,5.918316 6.19777,5.918316 0.22545,0 0.4099,0.2689 0.4099,0.59756 0,0.32866 0.27875,0.59756 0.61946,0.59756 0.34071,0 0.61947,0.18546 0.61947,0.41211 0,0.53753 5.62321,5.96185 6.18045,5.96185 0.23497,0 0.42721,0.2689 0.42721,0.59756 0,0.32865 0.27877,0.59755 0.61946,0.59755 0.34072,0 0.61947,0.2689 0.61947,0.59756 0,0.32866 0.27877,0.59756 0.61948,0.59756 0.3407,0 0.61947,0.20504 0.61947,0.45564 0,0.55244 5.61923,5.91832 6.19777,5.91832 0.22543,0 0.40989,0.2689 0.40989,0.59756 0,0.32866 0.27875,0.59756 0.61947,0.59756 0.34069,0 0.61946,0.24972 0.61946,0.55492 0,0.30523 0.27876,0.65813 0.61947,0.78426 0.34071,0.12612 0.61946,0.59908 0.61946,1.05105 0,0.45196 0.27877,0.92494 0.61947,1.05105 0.43386,0.16061 0.61946,0.81339 0.61946,2.17855 0,1.58623 0.13461,1.9515 0.72273,1.96135 0.68829,0.0113 0.68829,0.0314 0,0.41818 -0.54842,0.30812 -0.72273,0.9297 -0.72273,2.5773 0,1.66442 -0.14458,2.17126 -0.61946,2.17126 -0.41296,0 -0.61947,0.39837 -0.61947,1.19512 0,0.79673 -0.20647,1.19512 -0.61946,1.19512 -0.34414,0 -0.61947,0.3541 -0.61947,0.79673 0,0.6197 -0.27532,0.79676 -1.23893,0.79676 -0.82596,0 -1.23895,0.19918 -1.23895,0.59756 0,0.33197 -0.36708,0.59755 -0.82595,0.59755 -0.45886,0 -0.82597,0.26559 -0.82597,0.59756 0,0.48875 -0.70632,0.59756 -3.87909,0.59756 -3.06714,0 -3.92888,-0.12504 -4.11683,-0.59756 -0.13075,-0.32865 -0.70814,-0.59756 -1.28312,-0.59756 -0.65394,0 -1.04542,-0.22378 -1.04542,-0.59755 0,-0.33198 -0.36709,-0.59756 -0.82596,-0.59756 -0.45426,0 -0.82594,-0.25467 -0.82594,-0.56591 0,-0.31125 -0.55752,-0.68403 -1.23893,-0.82841 -0.68142,-0.14437 -1.23895,-0.51714 -1.23895,-0.82839 0,-0.31124 -0.27875,-0.5659 -0.61947,-0.5659 -0.34069,0 -0.61946,-0.32269 -0.61946,-0.71708 0,-0.9178 -0.78307,-1.67316 -1.73451,-1.67316 -0.40885,0 -0.74336,-0.2689 -0.74336,-0.59756 0,-0.32866 -0.25862,-0.59756 -0.57471,-0.59756 -0.31609,0 -0.68995,-0.443 -0.83083,-0.98443 -0.14087,-0.54144 -0.67208,-1.19505 -1.18045,-1.45246 -0.50839,-0.25741 -1.07295,-0.71077 -1.25459,-1.00744 -0.18164,-0.29665 -0.59978,-0.5394 -0.92921,-0.5394 -0.32941,0 -0.59893,-0.32268 -0.59893,-0.71706 0,-0.9178 -0.78307,-1.67316 -1.73452,-1.67316 -0.40885,0 -0.74335,-0.26891 -0.74335,-0.59756 0,-0.32866 -0.27877,-0.59756 -0.61948,-0.59756 -0.3407,0 -0.61947,-0.2689 -0.61947,-0.59756 0,-0.32866 -0.27875,-0.59756 -0.61946,-0.59756 -0.34072,0 -0.61946,-0.2689 -0.61946,-0.59756 0,-0.32866 -0.25711,-0.59756 -0.57131,-0.59756 -0.31423,0 -0.66851,-0.35854 -0.7873,-0.79675 -0.11881,-0.43821 -0.51215,-0.79674 -0.87412,-0.79674 -0.36198,0 -0.65813,-0.2689 -0.65813,-0.59756 0,-0.32866 -0.27876,-0.59756 -0.61947,-0.59756 -0.3407,0 -0.61946,-0.2689 -0.61946,-0.59756 0,-0.32866 -0.27877,-0.59756 -0.61946,-0.59756 -0.34072,0 -0.61948,-0.2689 -0.61948,-0.59756 0,-0.32865 -0.27876,-0.59755 -0.61947,-0.59755 -0.34071,0 -0.61947,-0.26891 -0.61947,-0.59756 0,-0.32866 -0.27875,-0.59756 -0.61947,-0.59756 -0.3407,0 -0.61946,-0.26891 -0.61946,-0.59756 0,-0.32866 -0.27876,-0.59756 -0.61947,-0.59756 -0.34072,0 -0.61947,-0.20353 -0.61947,-0.45228 0,-0.53178 -1.93031,-2.33632 -2.49915,-2.33632 -0.21544,0 -0.39171,-0.32268 -0.39171,-0.71707 0,-0.91779 -0.78306,-1.67317 -1.7345,-1.67317 -0.40886,0 -0.74337,-0.2689 -0.74337,-0.59755 0,-0.32866 -0.27875,-0.59756 -0.61945,-0.59756 -0.34072,0 -0.61947,-0.2689 -0.61947,-0.59756 0,-0.32866 -0.27877,-0.59756 -0.61947,-0.59756 -0.34071,0 -0.61947,-0.2689 -0.61947,-0.59756 0,-0.32865 -0.27877,-0.59755 -0.61947,-0.59755 -0.3407,0 -0.61947,-0.2857 -0.61947,-0.63486 0,-0.34917 -0.37169,-0.72862 -0.82596,-0.84321 -0.45429,-0.11461 -0.82596,-0.45635 -0.82596,-0.75945 0,-0.30311 -0.27876,-0.5511 -0.61947,-0.5511 -0.34071,0 -0.61946,-0.2689 -0.61946,-0.59755 0,-0.32866 -0.27876,-0.597561 -0.61947,-0.597561 -0.34071,0 -0.61946,-0.268902 -0.61946,-0.597559 0,-0.328656 -0.27878,-0.597559 -0.61947,-0.597559 -0.34072,0 -0.61947,-0.268902 -0.61947,-0.597557 0,-0.328657 -0.27876,-0.59756 -0.61948,-0.59756 -0.34069,0 -0.61947,-0.268901 -0.61947,-0.597557 0,-0.328657 -0.27875,-0.597558 -0.61946,-0.597558 -0.3407,0 -0.61947,-0.203531 -0.61947,-0.452289 0,-0.531788 -1.9303,-2.33632 -2.49916,-2.33632 -0.21543,0 -0.39169,-0.268899 -0.39169,-0.597558 0,-0.328658 -0.27877,-0.597558 -0.61946,-0.597558 -0.34071,0 -0.61947,-0.268902 -0.61947,-0.59756 0,-0.328656 -0.27877,-0.597558 -0.61947,-0.597558 -0.34071,0 -0.61948,-0.268901 -0.61948,-0.597559 0,-0.328657 -0.27875,-0.597558 -0.61946,-0.597558 -0.3407,0 -0.61946,-0.268901 -0.61946,-0.597559 0,-0.328658 -0.27877,-0.597558 -0.61947,-0.597558 -0.34072,0 -0.61947,-0.170034 -0.61947,-0.377849 0,-0.548733 -1.8707,-2.410758 -2.42198,-2.410758 -0.25789,0 -0.46888,-0.268902 -0.46888,-0.597559 0,-0.328657 -0.27876,-0.597559 -0.61945,-0.597559 -0.34072,0 -0.61948,-0.268901 -0.61948,-0.597558 0,-0.328657 -0.27876,-0.59756 -0.61947,-0.59756 -0.3407,0 -0.61947,-0.2689 -0.61947,-0.597557 0,-0.328658 -0.27876,-0.597559 -0.61946,-0.597559 -0.34071,0 -0.61947,-0.268902 -0.61947,-0.597559 0,-0.328657 -0.27875,-0.597559 -0.61947,-0.597559 -0.3407,0 -0.61947,-0.268901 -0.61947,-0.597558 0,-0.328657 -0.27876,-0.59756 -0.61945,-0.59756 -0.34072,0 -0.61947,-0.203528 -0.61947,-0.452283 0,-0.531792 -1.93032,-2.336323 -2.49917,-2.336323 -0.21542,0 -0.3917,-0.268902 -0.3917,-0.597559 0,-0.328657 -0.27875,-0.597559 -0.61947,-0.597559 -0.3407,0 -0.61946,-0.268901 -0.61946,-0.597558 0,-0.328657 -0.27876,-0.597558 -0.61947,-0.597558 -0.34071,0 -0.61946,-0.268903 -0.61946,-0.59756 0,-0.328656 -0.27877,-0.597558 -0.61947,-0.597558 -0.34071,0 -0.61947,-0.268902 -0.61947,-0.597559 0,-0.328658 -0.27877,-0.597557 -0.61947,-0.597557 -0.3407,0 -0.61947,-0.170034 -0.61947,-0.37785 0,-0.548734 -1.8707,-2.410759 -2.42198,-2.410759 -0.25788,0 -0.46887,-0.268901 -0.46887,-0.597559 0,-0.328657 -0.27876,-0.597557 -0.61947,-0.597557 -0.34071,0 -0.61946,-0.268902 -0.61946,-0.597561 0,-0.328656 -0.27878,-0.597557 -0.61947,-0.597557 -0.34072,0 -0.61947,-0.268901 -0.61947,-0.597558 0,-0.328659 -0.27876,-0.59756 -0.61947,-0.59756 -0.3407,0 -0.61947,-0.268901 -0.61947,-0.597557 0,-0.328659 -0.27876,-0.59756 -0.61947,-0.59756 -0.3407,0 -0.61947,-0.268901 -0.61947,-0.597559 0,-0.328656 -0.25708,-0.597558 -0.5713,-0.597558 -0.31421,0 -0.66848,-0.358536 -0.78728,-0.796745 -0.11882,-0.43821 -0.51216,-0.796746 -0.87413,-0.796746 -0.36197,0 -0.65814,-0.2689 -0.65814,-0.597557 0,-0.328657 -0.27875,-0.59756 -0.61946,-0.59756 -0.34071,0 -0.61947,-0.268901 -0.61947,-0.597558 0,-0.328656 -0.27876,-0.597559 -0.61947,-0.597559 -0.3407,0 -0.61948,-0.322681 -0.61948,-0.71707 0,-0.957698 -0.79466,-1.673165 -1.85839,-1.673165 -1.06373,0 -1.8584,0.715467 -1.8584,1.673165 0,0.394389 -0.27877,0.71707 -0.61947,0.71707 -0.34071,0 -0.61947,0.268903 -0.61947,0.597559 0,0.328657 -0.27876,0.597558 -0.61948,0.597558 -0.34069,0 -0.61945,0.247993 -0.61945,0.551097 0,0.303102 -0.37169,0.644854 -0.82596,0.759449 -0.45428,0.114595 -0.82596,0.494038 -0.82596,0.843209 0,0.349168 -0.27877,0.634853 -0.61948,0.634853 -0.340711,0 -0.619463,0.268902 -0.619463,0.597558 0,0.328658 -0.278753,0.597559 -0.619468,0.597559 -0.340705,0 -0.619465,0.268901 -0.619465,0.59756 0,0.328656 -0.278768,0.597557 -0.619466,0.597557 -0.34071,0 -0.619466,0.268901 -0.619466,0.59756 0,0.328657 -0.278768,0.597558 -0.619478,0.597558 -0.340698,0 -0.619467,0.268901 -0.619467,0.597557 0,0.328659 -0.278756,0.597561 -0.619466,0.597561 -0.34071,0 -0.619467,0.2689 -0.619467,0.597557 0,0.328658 -0.296161,0.597559 -0.65813,0.597559 -0.36197,0 -0.755326,0.358536 -0.874123,0.796745 -0.118797,0.43821 -0.473081,0.796745 -0.787295,0.796745 -0.314216,0 -0.571303,0.268902 -0.571303,0.597558 0,0.328658 -0.278756,0.597561 -0.619465,0.597561 -0.340711,0 -0.619467,0.268899 -0.619467,0.597557 0,0.328657 -0.278768,0.597559 -0.619467,0.597559 -0.34071,0 -0.619467,0.268902 -0.619467,0.597558 0,0.328657 -0.278767,0.59756 -0.619477,0.59756 -0.340699,0 -0.619466,0.268901 -0.619466,0.597558 0,0.328657 -0.278757,0.597558 -0.619467,0.597558 -0.340709,0 -0.619467,0.268902 -0.619467,0.597559 0,0.328657 -0.176268,0.597559 -0.391702,0.597559 -0.56885,0 -2.499148,1.804531 -2.499148,2.336323 0,0.248755 -0.27876,0.452283 -0.619469,0.452283 -0.340706,0 -0.619467,0.268903 -0.619467,0.59756 0,0.328657 -0.278762,0.597558 -0.619468,0.597558 -0.340707,0 -0.619468,0.268902 -0.619468,0.597559 0,0.328657 -0.27876,0.597559 -0.619469,0.597559 -0.340706,0 -0.619469,0.268901 -0.619469,0.597559 0,0.328657 -0.278758,0.597557 -0.619466,0.597557 -0.340709,0 -0.619468,0.268903 -0.619468,0.59756 0,0.328657 -0.278762,0.597558 -0.619468,0.597558 -0.340707,0 -0.619469,0.247995 -0.619469,0.551096 0,0.303102 -0.37168,0.644855 -0.825956,0.75945 -0.454278,0.114596 -0.825958,0.494038 -0.825958,0.843207 0,0.349169 -0.27876,0.634854 -0.619468,0.634854 -0.340707,0 -0.619467,0.268902 -0.619467,0.597558 0,0.328658 -0.278761,0.59756 -0.619468,0.59756 -0.340709,0 -0.619469,0.2689 -0.619469,0.597558 0,0.328658 -0.278761,0.597559 -0.619468,0.597559 -0.340706,0 -0.619468,0.268901 -0.619468,0.597558 0,0.328658 -0.278761,0.597559 -0.619468,0.597559 -0.340708,0 -0.619467,0.268902 -0.619467,0.597558 0,0.328658 -0.278762,0.59756 -0.61947,0.59756 -0.340706,0 -0.619468,0.2689 -0.619468,0.597558 0,0.328659 -0.176267,0.597558 -0.3917,0.597558 -0.568854,0 -2.499149,1.804532 -2.499149,2.33632 0,0.248758 -0.278761,0.452289 -0.619469,0.452289 -0.340706,0 -0.619467,0.268901 -0.619467,0.597558 0,0.328656 -0.27876,0.597557 -0.619469,0.597557 -0.340708,0 -0.619468,0.268903 -0.619468,0.59756 0,0.328655 -0.278761,0.597557 -0.619467,0.597557 -0.340708,0 -0.619469,0.268903 -0.619469,0.597559 0,0.328657 -0.27876,0.597559 -0.619467,0.597559 -0.34071,0 -0.619468,0.268901 -0.619468,0.597561 0,0.32865 -0.278763,0.59755 -0.619469,0.59755 -0.340707,0 -0.619469,0.26891 -0.619469,0.59756 0,0.32866 -0.296159,0.59756 -0.65813,0.59756 -0.361972,0 -0.755326,0.35854 -0.874123,0.79675 -0.118796,0.4382 -0.47308,0.79675 -0.787293,0.79675 -0.314216,0 -0.571303,0.2689 -0.571303,0.59755 0,0.32866 -0.278761,0.59756 -0.619467,0.59756 -0.340709,0 -0.619469,0.2689 -0.619469,0.59756 0,0.32866 -0.278761,0.59756 -0.619469,0.59756 -0.340706,0 -0.619468,0.2689 -0.619468,0.59756 0,0.32865 -0.278761,0.59755 -0.619468,0.59755 -0.340707,0 -0.619467,0.26891 -0.619467,0.59756 0,0.32866 -0.278761,0.59756 -0.619469,0.59756 -0.340706,0 -0.619468,0.2689 -0.619468,0.59756 0,0.32866 -0.176268,0.59756 -0.391701,0.59756 -0.568853,0 -2.499149,1.80454 -2.499149,2.33632 0,0.24875 -0.278762,0.45228 -0.619469,0.45228 -0.340706,0 -0.619468,0.2689 -0.619468,0.59756 0,0.32865 -0.278759,0.59756 -0.619467,0.59756 -0.340708,0 -0.619467,0.2689 -0.619467,0.59756 0,0.32865 -0.278762,0.59756 -0.619469,0.59756 -0.340708,0 -0.619469,0.2689 -0.619469,0.59755 0,0.32866 -0.27876,0.59756 -0.619467,0.59756 -0.340707,0 -0.619468,0.2689 -0.619468,0.59756 0,0.32866 -0.278761,0.59756 -0.619468,0.59756 -0.340707,0 -0.619468,0.248 -0.619468,0.5511 0,0.30309 -0.371681,0.64485 -0.825957,0.75944 -0.454278,0.11462 -0.825958,0.49405 -0.825958,0.84322 0,0.37808 -0.348575,0.63485 -0.861831,0.63485 -0.578348,0 -1.015653,0.39312 -1.329476,1.19512 -0.257205,0.6573 -0.705663,1.19512 -0.996573,1.19512 -0.29091,0 -0.528928,0.2689 -0.528928,0.59756 0,0.32865 -0.278759,0.59756 -0.619469,0.59756 -0.340707,0 -0.619467,0.2689 -0.619467,0.59756 0,0.32864 -0.278761,0.59755 -0.619467,0.59755 -0.340708,0 -0.619469,0.26891 -0.619469,0.59755 0,0.32866 -0.176265,0.59756 -0.391702,0.59756 -0.568852,0 -2.499148,1.80453 -2.499148,2.33633 0,0.24876 -0.278761,0.45228 -0.619468,0.45228 -0.340708,0 -0.61947,0.2689 -0.61947,0.59756 0,0.32866 -0.278759,0.59756 -0.619467,0.59756 -0.340708,0 -0.619467,0.2689 -0.619467,0.59756 0,0.32866 -0.278762,0.59756 -0.619468,0.59756 -0.340708,0 -0.619469,0.2689 -0.619469,0.59756 0,0.32866 -0.27876,0.59756 -0.619468,0.59756 -0.340707,0 -0.619468,0.2689 -0.619468,0.59756 0,0.32866 -0.278761,0.59756 -0.619468,0.59756 -0.340707,0 -0.619468,0.24799 -0.619468,0.55109 0,0.30309 -0.37168,0.64486 -0.825957,0.75945 -0.454276,0.1146 -0.825958,0.49405 -0.825958,0.84321 0,0.4398 -0.380631,0.63486 -1.238935,0.63486 -0.825958,0 -1.238936,0.19918 -1.238936,0.59756 0,0.37377 -0.391476,0.59755 -1.045409,0.59755 -0.574974,0 -1.152377,0.26891 -1.28312,0.59756 -0.184833,0.46465 -0.998899,0.59756 -3.659662,0.59756 -2.660764,0 -3.474828,-0.13291 -3.659663,-0.59756 z"
       id="path1023" />
    <path
       style="fill:#ffffff;stroke-width:0.317007"
       d="m 87.350692,44.063946 c -0.139427,-0.363343 -0.73531,-0.475511 -2.526105,-0.475511 -1.871893,0 -2.343635,-0.09571 -2.343635,-0.47551 0,-0.26153 -0.213979,-0.47551 -0.47551,-0.47551 -0.26153,0 -0.47551,-0.21398 -0.47551,-0.47551 0,-0.264944 -0.282128,-0.47551 -0.637116,-0.47551 -0.350414,0 -0.881403,-0.285307 -1.179976,-0.634014 -0.298573,-0.348708 -0.725136,-0.634014 -0.947918,-0.634014 -0.222782,0 -0.405058,-0.213979 -0.405058,-0.47551 0,-0.26153 -0.21398,-0.47551 -0.47551,-0.47551 -0.297445,0 -0.47551,-0.300501 -0.47551,-0.802466 0,-0.441357 -0.21398,-0.884578 -0.475511,-0.984937 -0.27105,-0.104012 -0.47551,-0.576807 -0.47551,-1.099575 0,-0.603865 -0.162411,-0.917104 -0.47551,-0.917104 -0.390975,0 -0.47551,-0.563567 -0.47551,-3.170068 0,-2.6065 0.08453,-3.170068 0.47551,-3.170068 0.317007,0 0.47551,-0.317007 0.47551,-0.95102 0,-0.634014 0.158504,-0.951021 0.47551,-0.951021 0.261531,0 0.475511,-0.142811 0.475511,-0.317359 0,-0.363789 2.343344,-2.706747 3.407823,-3.40726 0.392296,-0.258163 0.713265,-0.66696 0.713265,-0.908438 0,-0.309019 0.42249,-0.439051 1.426531,-0.439051 1.056689,0 1.42653,-0.123281 1.42653,-0.475511 0,-0.39829 0.669237,-0.47551 4.121089,-0.47551 3.451852,0 4.121088,0.07722 4.121088,0.47551 0,0.35223 0.369841,0.475511 1.426531,0.475511 0.965807,0 1.42653,0.13432 1.42653,0.415894 0,0.568398 1.727839,1.803153 2.523218,1.803153 0.36364,0 0.64685,0.208193 0.64685,0.47551 0,0.261531 0.21398,0.475511 0.475511,0.475511 0.317006,0 0.47551,0.317006 0.47551,0.95102 0,0.634014 0.158503,0.95102 0.47551,0.95102 0.31701,0 0.47551,0.317007 0.47551,0.951021 0,0.634013 0.1585,0.95102 0.47551,0.95102 0.39511,0 0.47551,0.616402 0.47551,3.645578 0,3.029177 -0.0804,3.645579 -0.47551,3.645579 -0.31701,0 -0.47551,0.317007 -0.47551,0.95102 0,0.634014 -0.1585,0.951021 -0.47551,0.951021 -0.261531,0 -0.47551,0.213979 -0.47551,0.47551 0,0.26153 -0.21398,0.47551 -0.47551,0.47551 -0.261531,0 -0.475511,0.21398 -0.475511,0.47551 0,0.261531 -0.213979,0.47551 -0.47551,0.47551 -0.26153,0 -0.47551,0.149933 -0.47551,0.333183 0,0.18325 -0.499286,0.541797 -1.109524,0.796771 -0.610238,0.254974 -1.109524,0.604327 -1.109524,0.776341 0,0.172014 -0.213979,0.312753 -0.47551,0.312753 -0.261531,0 -0.47551,0.21398 -0.47551,0.47551 0,0.379797 -0.471742,0.47551 -2.343635,0.47551 -1.790795,0 -2.386678,0.112168 -2.526105,0.475511 -0.107237,0.279454 -0.582786,0.47551 -1.153389,0.47551 -0.570603,0 -1.046153,-0.196056 -1.15339,-0.47551 z"
       id="path1025" />
    <path
       style="fill:#ffffff;stroke-width:0.40561"
       d="m 45.014135,38.754454 c 0,-0.346888 -0.580205,-0.684503 -1.445425,-0.841079 -0.827846,-0.149813 -1.445426,-0.497947 -1.445426,-0.814798 0,-0.304272 -0.27876,-0.553222 -0.619469,-0.553222 -0.340706,0 -0.619467,-0.268902 -0.619467,-0.59756 0,-0.328657 -0.278761,-0.597557 -0.619468,-0.597557 -0.412978,0 -0.619467,-0.398373 -0.619467,-1.195119 0,-0.796744 -0.206491,-1.195116 -0.619469,-1.195116 -0.487103,0 -0.619468,-0.553295 -0.619468,-2.589421 0,-2.036126 0.132365,-2.589421 0.619468,-2.589421 0.412978,0 0.619469,-0.398373 0.619469,-1.195117 0,-0.796744 0.206489,-1.195117 0.619467,-1.195117 0.340707,0 0.619468,-0.268902 0.619468,-0.597559 0,-0.328658 0.278761,-0.59756 0.619467,-0.59756 0.340709,0 0.619469,-0.254658 0.619469,-0.565905 0,-0.311248 0.570078,-0.686687 1.266842,-0.83431 0.696761,-0.147622 1.367086,-0.520401 1.489609,-0.828398 0.304505,-0.765464 9.218427,-0.825415 9.222753,-0.06203 0.0031,0.551617 2.450225,2.290641 3.223318,2.290641 0.269867,0 0.490668,0.345731 0.490668,0.76829 0,0.422559 0.269585,1.028341 0.599078,1.34618 0.329494,0.31784 0.721321,1.047717 0.870729,1.621946 0.149406,0.574229 0.530262,1.044054 0.846346,1.044054 0.381478,0 0.574696,0.46878 0.574696,1.394304 0,0.939139 -0.19151,1.394304 -0.586654,1.394304 -0.322659,0 -0.705696,0.522826 -0.851194,1.161836 -0.145494,0.639011 -0.531942,1.260822 -0.858769,1.381801 -0.326828,0.120979 -0.594232,0.654325 -0.594232,1.18521 0,0.699951 -0.286654,1.034649 -1.042953,1.217754 -1.114868,0.269917 -2.673855,1.566676 -2.673855,2.224102 0,0.241439 -1.789574,0.398372 -4.542765,0.398372 -3.699804,0 -4.542766,-0.107528 -4.542766,-0.579506 z"
       id="path1027" />
  </g>
</svg>
